ply
format ascii 1.0
comment Created by Blender 2.76 (sub 0) - www.blender.org, source file: 'Architechture.blend'
element vertex 88
property float x
property float y
property float z
property float nx
property float ny
property float nz
property float s
property float t
element face 32
property list uchar uint vertex_indices
end_header
-0.299111 0.299111 -0.000464 -1.000000 0.000000 -0.000000 0.649555 0.499768
-0.299111 -0.299111 -0.000464 -1.000000 0.000000 -0.000000 0.350445 0.499768
-0.299111 -0.299111 0.100000 -1.000000 0.000000 -0.000000 0.350445 0.550000
-0.299111 0.299111 0.100000 -1.000000 0.000000 -0.000000 0.649555 0.550000
-0.299111 0.299111 0.100000 0.000000 1.000000 -0.000000 0.350445 0.550000
0.299111 0.299111 0.100000 0.000000 1.000000 -0.000000 0.649555 0.550000
0.299111 0.299111 -0.000464 0.000000 1.000000 -0.000000 0.649555 0.499768
-0.299111 0.299111 -0.000464 0.000000 1.000000 -0.000000 0.350445 0.499768
0.299111 0.299111 0.100000 1.000000 0.000000 -0.000000 0.649555 0.550000
0.299111 -0.299111 0.100000 1.000000 0.000000 -0.000000 0.350445 0.550000
0.299111 -0.299111 -0.000464 1.000000 0.000000 -0.000000 0.350445 0.499768
0.299111 0.299111 -0.000464 1.000000 0.000000 -0.000000 0.649555 0.499768
-0.299111 -0.299111 -0.000464 0.000000 -1.000000 -0.000000 0.350445 0.499768
0.299111 -0.299111 -0.000464 0.000000 -1.000000 -0.000000 0.649555 0.499768
0.299111 -0.299111 0.100000 0.000000 -1.000000 -0.000000 0.649555 0.550000
-0.299111 -0.299111 0.100000 0.000000 -1.000000 -0.000000 0.350445 0.550000
-0.299111 -0.299111 -0.000464 -0.000000 0.000000 -1.000000 0.350445 0.350445
-0.299111 0.299111 -0.000464 -0.000000 0.000000 -1.000000 0.350445 0.649555
0.299111 0.299111 -0.000464 -0.000000 0.000000 -1.000000 0.649555 0.649555
0.299111 -0.299111 -0.000464 -0.000000 0.000000 -1.000000 0.649555 0.350445
0.299111 -0.299111 0.100000 -0.000000 0.000000 1.000000 0.649555 0.350445
0.299111 0.299111 0.100000 -0.000000 0.000000 1.000000 0.649555 0.649555
-0.299111 0.299111 0.100000 -0.000000 0.000000 1.000000 0.350445 0.649555
-0.299111 -0.299111 0.100000 -0.000000 0.000000 1.000000 0.350445 0.350445
0.299899 -0.299111 3.001495 -0.000000 0.000000 1.000000 0.649950 0.350445
0.299899 0.299111 3.001495 -0.000000 0.000000 1.000000 0.649950 0.649555
-0.298322 0.299111 3.001495 -0.000000 0.000000 1.000000 0.350839 0.649555
-0.298322 -0.299111 3.001495 -0.000000 0.000000 1.000000 0.350839 0.350445
0.000000 0.196503 0.098233 0.000000 0.776360 -0.630238 0.500000 0.549116
0.000000 0.196503 2.901767 0.000000 0.776360 0.630238 0.500000 1.950883
0.141422 0.137924 2.901767 0.548967 0.548967 0.630238 0.570711 1.950883
0.141422 0.137924 0.098233 0.548967 0.548967 -0.630238 0.570711 0.549116
-0.298322 -0.299111 2.903727 -0.000000 0.000000 -1.000000 0.350839 0.350445
-0.298322 0.299111 2.903727 -0.000000 0.000000 -1.000000 0.350839 0.649555
0.299899 0.299111 2.903727 -0.000000 0.000000 -1.000000 0.649950 0.649555
0.299899 -0.299111 2.903727 -0.000000 0.000000 -1.000000 0.649950 0.350445
0.141422 0.137924 0.098233 0.548967 0.548967 -0.630238 0.568962 0.549116
0.141422 0.137924 2.901767 0.548967 0.548967 0.630238 0.568962 1.950883
0.200001 -0.003498 2.901767 0.776360 0.000000 0.630238 0.498251 1.950883
0.200001 -0.003498 0.098233 0.776360 0.000000 -0.630238 0.498251 0.549116
0.299899 -0.299111 3.001495 0.000000 -1.000000 0.000000 0.649950 0.000747
-0.298322 -0.299111 3.001495 0.000000 -1.000000 0.000000 0.350839 0.000747
-0.298322 -0.299111 2.903727 0.000000 -1.000000 0.000000 0.350839 -0.048136
0.299899 -0.299111 2.903727 0.000000 -1.000000 0.000000 0.649950 -0.048136
0.141422 -0.144920 2.901767 0.548967 -0.548967 0.630238 0.427540 1.950883
0.141422 -0.144920 0.098233 0.548967 -0.548967 -0.630238 0.427540 0.549116
0.299899 0.299111 3.001495 1.000000 0.000000 -0.000000 0.649555 0.000747
0.299899 -0.299111 3.001495 1.000000 0.000000 -0.000000 0.350445 0.000747
0.299899 -0.299111 2.903727 1.000000 0.000000 -0.000000 0.350445 -0.048136
0.299899 0.299111 2.903727 1.000000 0.000000 -0.000000 0.649555 -0.048136
0.141422 -0.144920 0.098233 0.548967 -0.548967 -0.630238 0.570711 0.549116
0.141422 -0.144920 2.901767 0.548967 -0.548967 0.630238 0.570711 1.950883
-0.000000 -0.203499 2.901767 0.000000 -0.776360 0.630238 0.500000 1.950883
-0.000000 -0.203499 0.098233 0.000000 -0.776360 -0.630238 0.500000 0.549116
-0.298322 0.299111 3.001495 0.000000 1.000000 -0.000000 0.350839 0.000747
0.299899 0.299111 3.001495 0.000000 1.000000 -0.000000 0.649950 0.000747
0.299899 0.299111 2.903727 0.000000 1.000000 -0.000000 0.649950 -0.048136
-0.298322 0.299111 2.903727 0.000000 1.000000 -0.000000 0.350839 -0.048136
-0.141422 -0.144920 2.901767 -0.548967 -0.548967 0.630238 0.429289 1.950883
-0.141422 -0.144920 0.098233 -0.548967 -0.548967 -0.630238 0.429289 0.549116
-0.298322 -0.299111 3.001495 -1.000000 0.000000 0.000000 0.350445 0.000747
-0.298322 0.299111 3.001495 -1.000000 0.000000 0.000000 0.649555 0.000747
-0.298322 0.299111 2.903727 -1.000000 0.000000 0.000000 0.649555 -0.048136
-0.298322 -0.299111 2.903727 -1.000000 0.000000 0.000000 0.350445 -0.048136
-0.141422 -0.144920 0.098233 -0.548967 -0.548967 -0.630238 0.427540 0.549116
-0.141422 -0.144920 2.901767 -0.548967 -0.548967 0.630238 0.427540 1.950883
-0.200001 -0.003498 2.901767 -0.776360 0.000000 0.630238 0.498251 1.950883
-0.200001 -0.003498 0.098233 -0.776360 0.000000 -0.630238 0.498251 0.549116
0.200001 -0.003498 2.901767 0.776360 0.000000 0.630238 0.600000 0.498251
0.141422 0.137924 2.901767 0.548967 0.548967 0.630238 0.570711 0.568962
0.000000 0.196503 2.901767 0.000000 0.776360 0.630238 0.500000 0.598251
-0.141422 0.137924 2.901767 -0.548967 0.548967 0.630238 0.429289 0.568962
-0.200001 -0.003498 2.901767 -0.776360 0.000000 0.630238 0.400000 0.498251
-0.141422 -0.144920 2.901767 -0.548967 -0.548967 0.630238 0.429289 0.427540
-0.000000 -0.203499 2.901767 0.000000 -0.776360 0.630238 0.500000 0.398251
0.141422 -0.144920 2.901767 0.548967 -0.548967 0.630238 0.570711 0.427540
-0.141422 0.137924 0.098233 -0.548967 0.548967 -0.630238 0.429289 0.549116
-0.141422 0.137924 2.901767 -0.548967 0.548967 0.630238 0.429289 1.950883
-0.141422 0.137924 2.901767 -0.548967 0.548967 0.630238 0.568962 1.950883
-0.141422 0.137924 0.098233 -0.548967 0.548967 -0.630238 0.568962 0.549116
-0.141422 0.137924 0.098233 -0.548967 0.548967 -0.630238 0.429289 0.568962
0.000000 0.196503 0.098233 0.000000 0.776360 -0.630238 0.500000 0.598251
0.141422 0.137924 0.098233 0.548967 0.548967 -0.630238 0.570711 0.568962
0.200001 -0.003498 0.098233 0.776360 0.000000 -0.630238 0.600000 0.498251
0.141422 -0.144920 0.098233 0.548967 -0.548967 -0.630238 0.570711 0.427540
-0.000000 -0.203499 0.098233 0.000000 -0.776360 -0.630238 0.500000 0.398251
-0.141422 -0.144920 0.098233 -0.548967 -0.548967 -0.630238 0.429289 0.427540
-0.200001 -0.003498 0.098233 -0.776360 0.000000 -0.630238 0.400000 0.498251
4 0 1 2 3
4 4 5 6 7
4 8 9 10 11
4 12 13 14 15
4 16 17 18 19
4 20 21 22 23
4 24 25 26 27
4 28 29 30 31
4 32 33 34 35
4 36 37 38 39
4 40 41 42 43
4 39 38 44 45
4 46 47 48 49
4 50 51 52 53
4 54 55 56 57
4 53 52 58 59
4 60 61 62 63
4 64 65 66 67
3 68 69 70
3 70 71 72
3 72 73 74
3 74 75 68
3 68 70 72
3 72 74 68
4 76 77 29 28
4 67 66 78 79
3 80 81 82
3 82 83 84
3 84 85 86
3 86 87 80
3 80 82 84
3 84 86 80
