ply
format ascii 1.0
comment Created by Blender 2.76 (sub 0) - www.blender.org, source file: ''
element vertex 64
property float x
property float y
property float z
property float nx
property float ny
property float nz
element face 32
property list uchar uint vertex_indices
end_header
-0.299111 0.299111 -0.000464 -1.000000 0.000000 -0.000000
-0.299111 -0.299111 -0.000464 -1.000000 0.000000 -0.000000
-0.299111 -0.299111 0.100000 -1.000000 0.000000 -0.000000
-0.299111 0.299111 0.100000 -1.000000 0.000000 -0.000000
-0.299111 0.299111 0.100000 0.000000 1.000000 -0.000000
0.299111 0.299111 0.100000 0.000000 1.000000 -0.000000
0.299111 0.299111 -0.000464 0.000000 1.000000 -0.000000
-0.299111 0.299111 -0.000464 0.000000 1.000000 -0.000000
0.299111 0.299111 0.100000 1.000000 0.000000 -0.000000
0.299111 -0.299111 0.100000 1.000000 0.000000 -0.000000
0.299111 -0.299111 -0.000464 1.000000 0.000000 -0.000000
0.299111 0.299111 -0.000464 1.000000 0.000000 -0.000000
-0.299111 -0.299111 -0.000464 0.000000 -1.000000 -0.000000
0.299111 -0.299111 -0.000464 0.000000 -1.000000 -0.000000
0.299111 -0.299111 0.100000 0.000000 -1.000000 -0.000000
-0.299111 -0.299111 0.100000 0.000000 -1.000000 -0.000000
-0.299111 -0.299111 -0.000464 -0.000000 0.000000 -1.000000
-0.299111 0.299111 -0.000464 -0.000000 0.000000 -1.000000
0.299111 0.299111 -0.000464 -0.000000 0.000000 -1.000000
0.299111 -0.299111 -0.000464 -0.000000 0.000000 -1.000000
0.299111 -0.299111 0.100000 -0.000000 0.000000 1.000000
0.299111 0.299111 0.100000 -0.000000 0.000000 1.000000
-0.299111 0.299111 0.100000 -0.000000 0.000000 1.000000
-0.299111 -0.299111 0.100000 -0.000000 0.000000 1.000000
0.299899 -0.299111 3.001495 -0.000000 0.000000 1.000000
0.299899 0.299111 3.001495 -0.000000 0.000000 1.000000
-0.298322 0.299111 3.001495 -0.000000 0.000000 1.000000
-0.298322 -0.299111 3.001495 -0.000000 0.000000 1.000000
0.000000 0.196503 0.098233 0.000000 0.776360 -0.630238
0.000000 0.196503 2.901767 0.000000 0.776360 0.630238
0.141422 0.137924 2.901767 0.548967 0.548967 0.630238
0.141422 0.137924 0.098233 0.548967 0.548967 -0.630238
-0.298322 -0.299111 2.903727 -0.000000 0.000000 -1.000000
-0.298322 0.299111 2.903727 -0.000000 0.000000 -1.000000
0.299899 0.299111 2.903727 -0.000000 0.000000 -1.000000
0.299899 -0.299111 2.903727 -0.000000 0.000000 -1.000000
0.200001 -0.003498 2.901767 0.776360 0.000000 0.630238
0.200001 -0.003498 0.098233 0.776360 0.000000 -0.630238
0.299899 -0.299111 3.001495 0.000000 -1.000000 0.000000
-0.298322 -0.299111 3.001495 0.000000 -1.000000 0.000000
-0.298322 -0.299111 2.903727 0.000000 -1.000000 0.000000
0.299899 -0.299111 2.903727 0.000000 -1.000000 0.000000
0.141422 -0.144920 2.901767 0.548967 -0.548967 0.630238
0.141422 -0.144920 0.098233 0.548967 -0.548967 -0.630238
0.299899 0.299111 3.001495 1.000000 0.000000 -0.000000
0.299899 -0.299111 3.001495 1.000000 0.000000 -0.000000
0.299899 -0.299111 2.903727 1.000000 0.000000 -0.000000
0.299899 0.299111 2.903727 1.000000 0.000000 -0.000000
-0.000000 -0.203499 2.901767 0.000000 -0.776360 0.630238
-0.000000 -0.203499 0.098233 0.000000 -0.776360 -0.630238
-0.298322 0.299111 3.001495 0.000000 1.000000 -0.000000
0.299899 0.299111 3.001495 0.000000 1.000000 -0.000000
0.299899 0.299111 2.903727 0.000000 1.000000 -0.000000
-0.298322 0.299111 2.903727 0.000000 1.000000 -0.000000
-0.141422 -0.144920 2.901767 -0.548967 -0.548967 0.630238
-0.141422 -0.144920 0.098233 -0.548967 -0.548967 -0.630238
-0.298322 -0.299111 3.001495 -1.000000 0.000000 0.000000
-0.298322 0.299111 3.001495 -1.000000 0.000000 0.000000
-0.298322 0.299111 2.903727 -1.000000 0.000000 0.000000
-0.298322 -0.299111 2.903727 -1.000000 0.000000 0.000000
-0.200001 -0.003498 2.901767 -0.776360 0.000000 0.630238
-0.200001 -0.003498 0.098233 -0.776360 0.000000 -0.630238
-0.141422 0.137924 2.901767 -0.548967 0.548967 0.630238
-0.141422 0.137924 0.098233 -0.548967 0.548967 -0.630238
4 0 1 2 3
4 4 5 6 7
4 8 9 10 11
4 12 13 14 15
4 16 17 18 19
4 20 21 22 23
4 24 25 26 27
4 28 29 30 31
4 32 33 34 35
4 31 30 36 37
4 38 39 40 41
4 37 36 42 43
4 44 45 46 47
4 43 42 48 49
4 50 51 52 53
4 49 48 54 55
4 56 57 58 59
4 55 54 60 61
3 36 30 29
3 29 62 60
3 60 54 48
3 48 42 36
3 36 29 60
3 60 48 36
4 63 62 29 28
4 61 60 62 63
3 63 28 31
3 31 37 43
3 43 49 55
3 55 61 63
3 63 31 43
3 43 55 63
