ply
format ascii 1.0
comment Created by Blender 2.77 (sub 0) - www.blender.org, source file: ''
element vertex 510
property float x
property float y
property float z
property float nx
property float ny
property float nz
property float s
property float t
element face 512
property list uchar uint vertex_indices
end_header
-0.189503 0.000000 0.459721 -0.389447 0.000000 0.921018 0.250000 0.875544
-0.096608 -0.000000 0.488037 -0.190527 0.000000 0.981658 0.250000 0.937794
-0.094752 0.018847 0.488037 -0.186865 0.037172 0.981658 0.218750 0.937794
-0.185862 0.036970 0.459721 -0.381939 0.075961 0.921018 0.218750 0.875544
-0.457502 0.000000 -0.190423 -0.925382 0.000000 -0.378979 0.250000 0.374455
-0.485681 0.000000 -0.097077 -0.981170 0.000000 -0.193030 0.250000 0.437205
-0.476349 0.094752 -0.097077 -0.962310 0.191412 -0.193030 0.218750 0.437205
-0.448711 0.089254 -0.190423 -0.907590 0.180517 -0.378979 0.218750 0.374455
-0.275116 0.000000 0.413738 -0.561571 0.000000 0.827387 0.250000 0.813211
-0.269830 0.053673 0.413738 -0.550798 0.109531 0.827387 0.218750 0.813211
-0.411741 0.000000 -0.276451 -0.834529 0.000000 -0.550920 0.250000 0.311788
-0.403829 0.080327 -0.276451 -0.818476 0.162786 -0.550920 0.218750 0.311788
-0.350157 0.000000 0.351855 -0.711783 0.000000 0.702353 0.250000 0.750770
-0.343428 0.068312 0.351855 -0.698111 0.138859 0.702353 0.218750 0.750770
-0.350157 0.000000 -0.351855 -0.711783 0.000000 -0.702353 0.250000 0.249230
-0.343428 0.068312 -0.351855 -0.698111 0.138859 -0.702353 0.218750 0.249230
-0.411741 0.000000 0.276451 -0.834529 0.000000 0.550920 0.250000 0.688212
-0.403829 0.080327 0.276451 -0.818476 0.162786 0.550920 0.218750 0.688212
-0.275116 0.000000 -0.413738 -0.561571 0.000000 -0.827387 0.250000 0.186789
-0.269830 0.053673 -0.413738 -0.550798 0.109531 -0.827387 0.218750 0.186789
-0.457502 0.000000 0.190423 -0.925382 0.000000 0.378979 0.250000 0.625546
-0.448711 0.089254 0.190423 -0.907590 0.180517 0.378979 0.218750 0.625546
-0.189503 0.000000 -0.459721 -0.389447 0.000000 -0.921018 0.250000 0.124456
-0.185862 0.036970 -0.459721 -0.381939 0.075961 -0.921018 0.218750 0.124456
-0.485681 0.000000 0.097077 -0.981170 0.000000 0.193030 0.250000 0.562795
-0.476349 0.094752 0.097077 -0.962310 0.191412 0.193030 0.218750 0.562795
-0.096608 0.000000 -0.488037 -0.190527 0.000000 -0.981658 0.250000 0.062206
-0.094752 0.018847 -0.488037 -0.186865 0.037172 -0.981658 0.218750 0.062206
-0.495196 0.000000 0.000000 -1.000000 0.000000 0.000000 0.250000 0.500000
-0.485681 0.096608 0.000000 -0.980773 0.195074 0.000000 0.218750 0.500000
-0.096608 -0.000000 0.488037 -0.190527 0.000000 0.981658 1.250000 0.937794
0.000000 -0.000000 0.495196 0.000000 0.000000 1.000000 0.781484 1.000000
-0.094752 0.018847 0.488037 -0.186865 0.037172 0.981658 1.218750 0.937794
0.000000 0.000000 -0.495196 0.000000 0.000000 -1.000000 0.703063 0.000000
-0.448711 0.185862 0.097077 -0.906491 0.375469 0.193030 0.187500 0.562795
-0.457502 0.189503 0.000000 -0.923856 0.382672 0.000000 0.187500 0.500000
-0.089254 0.036970 0.488037 -0.176031 0.072909 0.981658 1.187500 0.937794
-0.089254 0.036970 -0.488037 -0.176031 0.072909 -0.981658 1.187500 0.062206
-0.448711 0.185862 -0.097077 -0.906491 0.375469 -0.193030 0.187500 0.437205
-0.089254 0.036970 0.488037 -0.176031 0.072909 0.981658 0.187500 0.937794
-0.175078 0.072520 0.459721 -0.359783 0.149022 0.921018 0.187500 0.875544
-0.422676 0.175078 -0.190423 -0.854946 0.354106 -0.378979 0.187500 0.374455
-0.254174 0.105283 0.413738 -0.518815 0.214911 0.827387 0.187500 0.813211
-0.380399 0.157566 -0.276451 -0.770989 0.319346 -0.550920 0.187500 0.311788
-0.323503 0.133999 0.351855 -0.657613 0.272378 0.702353 0.187500 0.750770
-0.323503 0.133999 -0.351855 -0.657613 0.272378 -0.702353 0.187500 0.249230
-0.380399 0.157566 0.276451 -0.770989 0.319346 0.550920 0.187500 0.688212
-0.254174 0.105283 -0.413738 -0.518815 0.214911 -0.827387 0.187500 0.186789
-0.422676 0.175078 0.190423 -0.854946 0.354106 0.378979 0.187500 0.625546
-0.175078 0.072520 -0.459721 -0.359783 0.149022 -0.921018 0.187500 0.124456
-0.089254 0.036970 -0.488037 -0.176031 0.072909 -0.981658 0.187500 0.062206
-0.342350 0.228751 -0.276451 -0.693869 0.463637 -0.550920 0.156250 0.311788
-0.291145 0.194537 -0.351855 -0.591815 0.395428 -0.702353 0.156250 0.249230
-0.291145 0.194537 0.351855 -0.591815 0.395428 0.702353 0.156250 0.750770
-0.342350 0.228751 0.276451 -0.693869 0.463637 0.550920 0.156250 0.688212
-0.228751 0.152847 -0.413738 -0.466933 0.311991 -0.827387 0.156250 0.186789
-0.380399 0.254174 0.190423 -0.769433 0.514115 0.378979 0.156250 0.625546
-0.157566 0.105283 -0.459721 -0.323801 0.216346 -0.921018 0.156250 0.124456
-0.403829 0.269830 0.097077 -0.815821 0.545091 0.193030 0.156250 0.562795
-0.080327 0.053673 -0.488037 -0.158422 0.105838 -0.981658 0.156250 0.062206
-0.411741 0.275116 0.000000 -0.831446 0.555559 0.000000 0.156250 0.500000
-0.080327 0.053673 0.488037 -0.158422 0.105838 0.981658 1.156250 0.937794
-0.080327 0.053673 -0.488037 -0.158422 0.105838 -0.981658 1.156250 0.062206
-0.403829 0.269830 -0.097077 -0.815821 0.545091 -0.193030 0.156250 0.437205
-0.080327 0.053673 0.488037 -0.158422 0.105838 0.981658 0.156250 0.937794
-0.157566 0.105283 0.459721 -0.323801 0.216346 0.921018 0.156250 0.875544
-0.380399 0.254174 -0.190423 -0.769433 0.514115 -0.378979 0.156250 0.374455
-0.228751 0.152847 0.413738 -0.466933 0.311991 0.827387 0.156250 0.813211
-0.068312 0.068312 -0.488037 -0.134709 0.134709 -0.981658 1.125000 0.062206
-0.350157 0.350157 0.000000 -0.707083 0.707083 0.000000 0.125000 0.500000
-0.343428 0.343429 -0.097077 -0.693777 0.693777 -0.193030 0.125000 0.437205
-0.068312 0.068312 0.488037 -0.134709 0.134709 0.981658 0.125000 0.937794
-0.133999 0.133999 0.459721 -0.275369 0.275369 0.921018 0.125000 0.875544
-0.323503 0.323503 -0.190423 -0.654347 0.654347 -0.378979 0.125000 0.374455
-0.194537 0.194537 0.413738 -0.397076 0.397076 0.827387 0.125000 0.813211
-0.291145 0.291145 -0.276451 -0.590106 0.590106 -0.550920 0.125000 0.311788
-0.247598 0.247598 0.351855 -0.503311 0.503311 0.702353 0.125000 0.750770
-0.247598 0.247598 -0.351855 -0.503311 0.503311 -0.702353 0.125000 0.249230
-0.291145 0.291145 0.276451 -0.590106 0.590106 0.550920 0.125000 0.688212
-0.194537 0.194537 -0.413738 -0.397076 0.397076 -0.827387 0.125000 0.186789
-0.323503 0.323503 0.190423 -0.654347 0.654347 0.378979 0.125000 0.625546
-0.133999 0.133999 -0.459721 -0.275369 0.275369 -0.921018 0.125000 0.124456
-0.343428 0.343429 0.097077 -0.693777 0.693777 0.193030 0.125000 0.562795
-0.068312 0.068312 -0.488037 -0.134709 0.134709 -0.981658 0.125000 0.062206
-0.068312 0.068312 0.488037 -0.134709 0.134709 0.981658 1.125000 0.937794
-0.194537 0.291145 -0.351855 -0.395428 0.591815 -0.702353 0.093750 0.249230
-0.152846 0.228751 -0.413738 -0.311991 0.466933 -0.827387 0.093750 0.186789
-0.228751 0.342350 0.276451 -0.463637 0.693869 0.550920 0.093750 0.688212
-0.254174 0.380399 0.190423 -0.514115 0.769433 0.378979 0.093750 0.625546
-0.105282 0.157566 -0.459721 -0.216346 0.323801 -0.921018 0.093750 0.124456
-0.269830 0.403829 0.097077 -0.545091 0.815821 0.193030 0.093750 0.562795
-0.053672 0.080327 -0.488037 -0.105838 0.158422 -0.981658 0.093750 0.062206
-0.275116 0.411741 0.000000 -0.555559 0.831446 0.000000 0.093750 0.500000
-0.053672 0.080327 0.488037 -0.105838 0.158422 0.981658 1.093750 0.937794
-0.053672 0.080327 -0.488037 -0.105838 0.158422 -0.981658 1.093750 0.062206
-0.269830 0.403829 -0.097077 -0.545091 0.815821 -0.193030 0.093750 0.437205
-0.053672 0.080327 0.488037 -0.105838 0.158422 0.981658 0.093750 0.937794
-0.105282 0.157566 0.459721 -0.216346 0.323801 0.921018 0.093750 0.875544
-0.254174 0.380399 -0.190423 -0.514115 0.769433 -0.378979 0.093750 0.374455
-0.152846 0.228751 0.413738 -0.311991 0.466933 0.827387 0.093750 0.813211
-0.228751 0.342350 -0.276451 -0.463637 0.693869 -0.550920 0.093750 0.311788
-0.194537 0.291145 0.351855 -0.395428 0.591815 0.702353 0.093750 0.750770
-0.036970 0.089254 0.488037 -0.072909 0.176031 0.981658 0.062500 0.937794
-0.072520 0.175078 0.459721 -0.149022 0.359783 0.921018 0.062500 0.875544
-0.185862 0.448711 -0.097077 -0.375469 0.906491 -0.193030 0.062500 0.437205
-0.175078 0.422677 -0.190423 -0.354106 0.854946 -0.378979 0.062500 0.374455
-0.105282 0.254174 0.413738 -0.214911 0.518815 0.827387 0.062500 0.813211
-0.157566 0.380399 -0.276451 -0.319346 0.770989 -0.550920 0.062500 0.311788
-0.133999 0.323503 0.351855 -0.272378 0.657613 0.702353 0.062500 0.750770
-0.133999 0.323503 -0.351855 -0.272378 0.657613 -0.702353 0.062500 0.249230
-0.157566 0.380399 0.276451 -0.319346 0.770989 0.550920 0.062500 0.688212
-0.105282 0.254174 -0.413738 -0.214911 0.518815 -0.827387 0.062500 0.186789
-0.175078 0.422677 0.190423 -0.354106 0.854946 0.378979 0.062500 0.625545
-0.072520 0.175078 -0.459721 -0.149022 0.359783 -0.921018 0.062500 0.124456
-0.185862 0.448711 0.097077 -0.375469 0.906491 0.193030 0.062500 0.562795
-0.036970 0.089254 -0.488037 -0.072909 0.176031 -0.981658 0.062500 0.062206
-0.189503 0.457502 0.000000 -0.382672 0.923856 0.000000 0.062500 0.500000
-0.036970 0.089254 0.488037 -0.072909 0.176031 0.981658 1.062500 0.937794
-0.036970 0.089254 -0.488037 -0.072909 0.176031 -0.981658 1.062500 0.062206
-0.080326 0.403829 0.276451 -0.162786 0.818476 0.550920 0.031250 0.688212
-0.089254 0.448711 0.190423 -0.180517 0.907590 0.378979 0.031250 0.625545
-0.053672 0.269830 -0.413738 -0.109531 0.550798 -0.827387 0.031250 0.186789
-0.036970 0.185862 -0.459721 -0.075961 0.381939 -0.921018 0.031250 0.124456
-0.094752 0.476349 0.097077 -0.191412 0.962310 0.193030 0.031250 0.562795
-0.018847 0.094752 -0.488037 -0.037172 0.186865 -0.981658 0.031250 0.062206
-0.096608 0.485681 0.000000 -0.195074 0.980773 0.000000 0.031250 0.500000
-0.018847 0.094752 0.488037 -0.037172 0.186865 0.981658 1.031250 0.937794
-0.018847 0.094752 -0.488037 -0.037172 0.186865 -0.981658 1.031250 0.062206
-0.094752 0.476349 -0.097077 -0.191412 0.962310 -0.193030 0.031250 0.437205
-0.018847 0.094752 0.488037 -0.037172 0.186865 0.981658 0.031250 0.937794
-0.036970 0.185862 0.459721 -0.075961 0.381939 0.921018 0.031250 0.875543
-0.089254 0.448711 -0.190423 -0.180517 0.907590 -0.378979 0.031250 0.374455
-0.053672 0.269830 0.413738 -0.109531 0.550798 0.827387 0.031250 0.813211
-0.080326 0.403829 -0.276451 -0.162786 0.818476 -0.550920 0.031250 0.311788
-0.068312 0.343429 0.351855 -0.138859 0.698111 0.702353 0.031250 0.750770
-0.068312 0.343429 -0.351855 -0.138859 0.698111 -0.702353 0.031250 0.249230
-0.089254 0.448711 -0.190423 -0.180517 0.907590 -0.378979 1.031250 0.374455
-0.094752 0.476349 -0.097077 -0.191412 0.962310 -0.193030 1.031250 0.437205
0.000000 0.485681 -0.097077 0.000000 0.981170 -0.193030 1.000000 0.437205
0.000000 0.457502 -0.190423 0.000000 0.925382 -0.378979 1.000000 0.374455
-0.053672 0.269830 0.413738 -0.109531 0.550798 0.827387 1.031250 0.813211
-0.036970 0.185862 0.459721 -0.075961 0.381939 0.921018 1.031250 0.875543
0.000000 0.189504 0.459721 0.000000 0.389447 0.921018 1.000000 0.875543
0.000000 0.275116 0.413738 0.000000 0.561571 0.827387 1.000000 0.813211
-0.080326 0.403829 -0.276451 -0.162786 0.818476 -0.550920 1.031250 0.311788
0.000000 0.411741 -0.276451 0.000000 0.834529 -0.550920 1.000000 0.311788
-0.068312 0.343429 0.351855 -0.138859 0.698111 0.702353 1.031250 0.750770
0.000000 0.350157 0.351855 0.000000 0.711783 0.702353 1.000000 0.750770
-0.068312 0.343429 -0.351855 -0.138859 0.698111 -0.702353 1.031250 0.249230
0.000000 0.350157 -0.351855 0.000000 0.711783 -0.702353 1.000000 0.249230
-0.080326 0.403829 0.276451 -0.162786 0.818476 0.550920 1.031250 0.688212
0.000000 0.411741 0.276451 0.000000 0.834529 0.550920 1.000000 0.688212
-0.053672 0.269830 -0.413738 -0.109531 0.550798 -0.827387 1.031250 0.186789
0.000000 0.275116 -0.413738 0.000000 0.561571 -0.827387 1.000000 0.186789
-0.089254 0.448711 0.190423 -0.180517 0.907590 0.378979 1.031250 0.625545
0.000000 0.457502 0.190423 0.000000 0.925382 0.378979 1.000000 0.625545
-0.036970 0.185862 -0.459721 -0.075961 0.381939 -0.921018 1.031250 0.124456
0.000000 0.189503 -0.459721 0.000000 0.389447 -0.921018 1.000000 0.124456
-0.094752 0.476349 0.097077 -0.191412 0.962310 0.193030 1.031250 0.562795
0.000000 0.485681 0.097077 0.000000 0.981170 0.193030 1.000000 0.562795
0.000000 0.096608 -0.488037 0.000000 0.190527 -0.981658 1.000000 0.062206
-0.096608 0.485681 0.000000 -0.195074 0.980773 0.000000 1.031250 0.500000
0.000000 0.495196 0.000000 0.000000 1.000000 0.000000 1.000000 0.500000
0.000000 0.096608 0.488037 0.000000 0.190527 0.981658 1.000000 0.937794
0.053673 0.269830 -0.413738 0.109531 0.550798 -0.827387 0.968750 0.186789
0.036970 0.185862 -0.459721 0.075961 0.381939 -0.921018 0.968750 0.124456
0.089254 0.448711 0.190423 0.180517 0.907590 0.378979 0.968750 0.625545
0.094752 0.476349 0.097077 0.191412 0.962310 0.193030 0.968750 0.562795
0.018847 0.094752 -0.488037 0.037172 0.186865 -0.981658 0.968750 0.062206
0.096608 0.485681 0.000000 0.195074 0.980773 0.000000 0.968750 0.500000
0.018847 0.094752 0.488037 0.037172 0.186865 0.981658 0.968750 0.937794
0.094752 0.476349 -0.097077 0.191412 0.962310 -0.193030 0.968750 0.437205
0.036970 0.185862 0.459721 0.075961 0.381939 0.921018 0.968750 0.875543
0.089254 0.448711 -0.190423 0.180517 0.907590 -0.378979 0.968750 0.374455
0.053673 0.269830 0.413738 0.109531 0.550798 0.827387 0.968750 0.813211
0.080327 0.403829 -0.276451 0.162786 0.818476 -0.550920 0.968750 0.311788
0.068312 0.343429 0.351855 0.138859 0.698111 0.702353 0.968750 0.750770
0.068312 0.343429 -0.351855 0.138859 0.698111 -0.702353 0.968750 0.249230
0.080327 0.403829 0.276451 0.162786 0.818476 0.550920 0.968750 0.688212
0.072520 0.175078 0.459721 0.149022 0.359783 0.921018 0.937500 0.875543
0.105283 0.254174 0.413738 0.214911 0.518815 0.827387 0.937500 0.813211
0.175078 0.422677 -0.190423 0.354106 0.854946 -0.378979 0.937500 0.374455
0.157567 0.380399 -0.276451 0.319346 0.770989 -0.550920 0.937500 0.311788
0.133999 0.323503 0.351855 0.272378 0.657613 0.702353 0.937500 0.750770
0.133999 0.323503 -0.351855 0.272378 0.657613 -0.702353 0.937500 0.249230
0.157567 0.380399 0.276451 0.319346 0.770989 0.550920 0.937500 0.688212
0.105283 0.254174 -0.413738 0.214911 0.518815 -0.827387 0.937500 0.186789
0.175079 0.422677 0.190423 0.354106 0.854946 0.378979 0.937500 0.625545
0.072520 0.175078 -0.459721 0.149022 0.359783 -0.921018 0.937500 0.124456
0.185862 0.448711 0.097077 0.375469 0.906491 0.193030 0.937500 0.562795
0.036970 0.089254 -0.488037 0.072909 0.176031 -0.981658 0.937500 0.062206
0.189504 0.457502 0.000000 0.382672 0.923856 0.000000 0.937500 0.500000
0.036970 0.089254 0.488037 0.072909 0.176031 0.981658 0.937500 0.937794
0.185862 0.448711 -0.097077 0.375469 0.906491 -0.193030 0.937500 0.437205
0.254175 0.380399 0.190423 0.514115 0.769433 0.378979 0.906250 0.625545
0.269830 0.403829 0.097077 0.545091 0.815821 0.193030 0.906250 0.562795
0.105283 0.157566 -0.459721 0.216346 0.323801 -0.921018 0.906250 0.124456
0.053673 0.080327 -0.488037 0.105838 0.158422 -0.981658 0.906250 0.062206
0.275117 0.411741 0.000000 0.555559 0.831446 0.000000 0.906250 0.500000
0.053673 0.080327 0.488037 0.105838 0.158422 0.981658 0.906250 0.937794
0.269830 0.403829 -0.097077 0.545091 0.815821 -0.193030 0.906250 0.437205
0.105283 0.157566 0.459721 0.216346 0.323801 0.921018 0.906250 0.875543
0.254175 0.380399 -0.190423 0.514115 0.769433 -0.378979 0.906250 0.374455
0.152847 0.228751 0.413738 0.311991 0.466933 0.827387 0.906250 0.813211
0.228751 0.342350 -0.276451 0.463637 0.693869 -0.550920 0.906250 0.311788
0.194537 0.291145 0.351855 0.395428 0.591815 0.702353 0.906250 0.750770
0.194537 0.291145 -0.351855 0.395428 0.591815 -0.702353 0.906250 0.249230
0.228751 0.342350 0.276451 0.463637 0.693869 0.550920 0.906250 0.688212
0.152847 0.228751 -0.413738 0.311991 0.466933 -0.827387 0.906250 0.186789
0.323503 0.323503 -0.190423 0.654347 0.654347 -0.378979 0.875000 0.374455
0.291145 0.291145 -0.276451 0.590106 0.590106 -0.550920 0.875000 0.311788
0.194537 0.194537 0.413738 0.397076 0.397076 0.827387 0.875000 0.813211
0.247598 0.247598 0.351855 0.503311 0.503311 0.702353 0.875000 0.750770
0.247598 0.247598 -0.351855 0.503311 0.503311 -0.702353 0.875000 0.249230
0.291145 0.291145 0.276451 0.590106 0.590106 0.550920 0.875000 0.688212
0.194537 0.194537 -0.413738 0.397076 0.397076 -0.827387 0.875000 0.186789
0.323503 0.323503 0.190423 0.654347 0.654347 0.378979 0.875000 0.625545
0.133999 0.133999 -0.459721 0.275369 0.275369 -0.921018 0.875000 0.124456
0.343429 0.343428 0.097077 0.693777 0.693777 0.193030 0.875000 0.562795
0.068312 0.068312 -0.488037 0.134709 0.134709 -0.981658 0.875000 0.062206
0.350157 0.350157 0.000000 0.707083 0.707083 0.000000 0.875000 0.500000
0.068312 0.068312 0.488037 0.134709 0.134709 0.981658 0.875000 0.937794
0.343429 0.343428 -0.097077 0.693777 0.693777 -0.193030 0.875000 0.437205
0.133999 0.133999 0.459721 0.275369 0.275369 0.921018 0.875000 0.875543
0.157567 0.105282 -0.459721 0.323801 0.216346 -0.921018 0.843750 0.124457
0.080327 0.053673 -0.488037 0.158422 0.105838 -0.981658 0.843750 0.062206
0.403829 0.269830 0.097077 0.815821 0.545091 0.193030 0.843750 0.562795
0.411741 0.275116 0.000000 0.831446 0.555559 0.000000 0.843750 0.500000
0.080327 0.053673 0.488037 0.158422 0.105838 0.981658 0.843750 0.937794
0.403829 0.269830 -0.097077 0.815821 0.545091 -0.193030 0.843750 0.437205
0.157567 0.105283 0.459721 0.323801 0.216346 0.921018 0.843750 0.875543
0.380399 0.254174 -0.190423 0.769433 0.514115 -0.378979 0.843750 0.374455
0.228751 0.152846 0.413738 0.466933 0.311991 0.827387 0.843750 0.813211
0.342350 0.228751 -0.276451 0.693869 0.463637 -0.550920 0.843750 0.311788
0.291145 0.194537 0.351855 0.591815 0.395428 0.702353 0.843750 0.750770
0.291145 0.194537 -0.351855 0.591815 0.395428 -0.702353 0.843750 0.249230
0.342350 0.228751 0.276451 0.693869 0.463637 0.550920 0.843750 0.688212
0.228751 0.152846 -0.413738 0.466933 0.311991 -0.827387 0.843750 0.186789
0.380399 0.254174 0.190423 0.769433 0.514115 0.378979 0.843750 0.625545
0.380399 0.157566 -0.276451 0.770989 0.319346 -0.550920 0.812500 0.311788
0.323503 0.133999 -0.351855 0.657613 0.272378 -0.702353 0.812500 0.249230
0.323503 0.133999 0.351855 0.657613 0.272378 0.702353 0.812500 0.750770
0.380399 0.157566 0.276451 0.770989 0.319346 0.550920 0.812500 0.688212
0.254175 0.105282 -0.413738 0.518815 0.214911 -0.827387 0.812500 0.186789
0.422677 0.175078 0.190423 0.854946 0.354106 0.378979 0.812500 0.625545
0.175078 0.072520 -0.459721 0.359783 0.149022 -0.921018 0.812500 0.124457
0.448711 0.185862 0.097077 0.906491 0.375469 0.193030 0.812500 0.562795
0.089254 0.036970 -0.488037 0.176031 0.072909 -0.981658 0.812500 0.062206
0.457502 0.189503 0.000000 0.923856 0.382672 0.000000 0.812500 0.500000
0.089254 0.036970 0.488037 0.176031 0.072909 0.981658 0.812500 0.937794
0.448711 0.185862 -0.097077 0.906491 0.375469 -0.193030 0.812500 0.437205
0.175079 0.072520 0.459721 0.359783 0.149022 0.921018 0.812500 0.875543
0.422677 0.175078 -0.190423 0.854946 0.354106 -0.378979 0.812500 0.374455
0.254175 0.105282 0.413738 0.518815 0.214911 0.827387 0.812500 0.813211
0.094752 0.018847 0.488037 0.186865 0.037172 0.981658 0.781250 0.937794
0.094752 0.018847 -0.488037 0.186865 0.037172 -0.981658 0.781250 0.062206
0.485681 0.096608 0.000000 0.980773 0.195074 0.000000 0.781250 0.500000
0.476349 0.094752 -0.097077 0.962310 0.191412 -0.193030 0.781250 0.437205
0.185862 0.036970 0.459721 0.381939 0.075961 0.921018 0.781250 0.875543
0.448711 0.089254 -0.190423 0.907590 0.180517 -0.378979 0.781250 0.374455
0.269830 0.053673 0.413738 0.550798 0.109531 0.827387 0.781250 0.813211
0.403829 0.080327 -0.276451 0.818476 0.162786 -0.550920 0.781250 0.311788
0.343429 0.068312 0.351855 0.698111 0.138859 0.702353 0.781250 0.750770
0.343429 0.068312 -0.351855 0.698111 0.138859 -0.702353 0.781250 0.249230
0.403829 0.080327 0.276451 0.818476 0.162786 0.550920 0.781250 0.688212
0.269830 0.053673 -0.413738 0.550798 0.109531 -0.827387 0.781250 0.186789
0.448711 0.089254 0.190423 0.907590 0.180517 0.378979 0.781250 0.625545
0.185862 0.036970 -0.459721 0.381939 0.075961 -0.921018 0.781250 0.124457
0.476349 0.094752 0.097077 0.962310 0.191412 0.193030 0.781250 0.562795
0.350157 -0.000000 0.351855 0.711783 0.000000 0.702353 0.750000 0.750770
0.411741 -0.000000 0.276451 0.834529 0.000000 0.550920 0.750000 0.688212
0.350157 -0.000000 -0.351855 0.711783 0.000000 -0.702353 0.750000 0.249230
0.275116 -0.000000 -0.413738 0.561571 0.000000 -0.827387 0.750000 0.186789
0.457502 0.000000 0.190423 0.925382 0.000000 0.378979 0.750000 0.625545
0.189504 0.000000 -0.459721 0.389447 0.000000 -0.921018 0.750000 0.124457
0.485681 -0.000000 0.097077 0.981170 0.000000 0.193030 0.750000 0.562795
0.096608 0.000000 -0.488037 0.190527 0.000000 -0.981658 0.750000 0.062206
0.495196 -0.000000 0.000000 1.000000 0.000000 0.000000 0.750000 0.500000
0.096608 -0.000000 0.488037 0.190527 0.000000 0.981658 0.750000 0.937794
0.485681 -0.000000 -0.097077 0.981170 0.000000 -0.193030 0.750000 0.437205
0.189504 0.000000 0.459721 0.389447 0.000000 0.921018 0.750000 0.875543
0.457502 0.000000 -0.190423 0.925382 0.000000 -0.378979 0.750000 0.374455
0.275117 0.000000 0.413738 0.561571 0.000000 0.827387 0.750000 0.813211
0.411741 -0.000000 -0.276451 0.834529 0.000000 -0.550920 0.750000 0.311788
0.485681 -0.096608 0.000000 0.980773 -0.195074 0.000000 0.718750 0.500000
0.476349 -0.094752 -0.097077 0.962310 -0.191412 -0.193030 0.718750 0.437205
0.094752 -0.018847 0.488037 0.186865 -0.037172 0.981658 0.718750 0.937794
0.185862 -0.036970 0.459721 0.381939 -0.075961 0.921018 0.718750 0.875543
0.448711 -0.089254 -0.190423 0.907590 -0.180517 -0.378979 0.718750 0.374455
0.269830 -0.053673 0.413738 0.550798 -0.109561 0.827387 0.718750 0.813211
0.403829 -0.080327 -0.276451 0.818476 -0.162786 -0.550920 0.718750 0.311788
0.343429 -0.068312 0.351855 0.698111 -0.138859 0.702353 0.718750 0.750770
0.343429 -0.068312 -0.351855 0.698111 -0.138859 -0.702353 0.718750 0.249230
0.403829 -0.080327 0.276451 0.818476 -0.162786 0.550920 0.718750 0.688212
0.269830 -0.053673 -0.413738 0.550798 -0.109561 -0.827387 0.718750 0.186789
0.448711 -0.089254 0.190423 0.907590 -0.180517 0.378979 0.718750 0.625545
0.185862 -0.036970 -0.459721 0.381939 -0.075961 -0.921018 0.718750 0.124457
0.476349 -0.094752 0.097077 0.962310 -0.191412 0.193030 0.718750 0.562795
0.094752 -0.018847 -0.488037 0.186865 -0.037172 -0.981658 0.718750 0.062206
0.323503 -0.133999 -0.351855 0.657613 -0.272378 -0.702353 0.687500 0.249230
0.254174 -0.105282 -0.413738 0.518815 -0.214911 -0.827387 0.687500 0.186789
0.380399 -0.157566 0.276451 0.770989 -0.319346 0.550920 0.687500 0.688212
0.422677 -0.175078 0.190423 0.854946 -0.354106 0.378979 0.687500 0.625545
0.175078 -0.072520 -0.459721 0.359783 -0.149022 -0.921018 0.687500 0.124456
0.448711 -0.185862 0.097077 0.906491 -0.375469 0.193030 0.687500 0.562795
0.089254 -0.036970 -0.488037 0.176031 -0.072909 -0.981658 0.687500 0.062206
0.457502 -0.189503 0.000000 0.923856 -0.382672 0.000000 0.687500 0.500000
0.089254 -0.036970 0.488037 0.176031 -0.072909 0.981658 0.687500 0.937794
0.448711 -0.185862 -0.097077 0.906491 -0.375469 -0.193030 0.687500 0.437205
0.175079 -0.072520 0.459721 0.359783 -0.149022 0.921018 0.687500 0.875543
0.422677 -0.175078 -0.190423 0.854946 -0.354106 -0.378979 0.687500 0.374455
0.254175 -0.105282 0.413738 0.518815 -0.214911 0.827387 0.687500 0.813211
0.380399 -0.157566 -0.276451 0.770989 -0.319346 -0.550920 0.687500 0.311788
0.323503 -0.133999 0.351855 0.657613 -0.272378 0.702353 0.687500 0.750770
0.080327 -0.053673 0.488037 0.158422 -0.105838 0.981658 0.656250 0.937794
0.157567 -0.105282 0.459721 0.323801 -0.216346 0.921018 0.656250 0.875543
0.403829 -0.269830 -0.097077 0.815821 -0.545091 -0.193030 0.656250 0.437205
0.380399 -0.254174 -0.190423 0.769433 -0.514115 -0.378979 0.656250 0.374455
0.228751 -0.152846 0.413738 0.466933 -0.311991 0.827387 0.656250 0.813211
0.342350 -0.228751 -0.276451 0.693869 -0.463637 -0.550920 0.656250 0.311788
0.291145 -0.194537 0.351855 0.591815 -0.395428 0.702353 0.656250 0.750770
0.291145 -0.194537 -0.351855 0.591815 -0.395428 -0.702353 0.656250 0.249230
0.342350 -0.228751 0.276451 0.693869 -0.463637 0.550920 0.656250 0.688212
0.228751 -0.152846 -0.413738 0.466933 -0.311991 -0.827387 0.656250 0.186789
0.380399 -0.254174 0.190423 0.769433 -0.514115 0.378979 0.656250 0.625545
0.157566 -0.105282 -0.459721 0.323801 -0.216346 -0.921018 0.656250 0.124456
0.403829 -0.269830 0.097077 0.815821 -0.545091 0.193030 0.656250 0.562795
0.080327 -0.053673 -0.488037 0.158422 -0.105838 -0.981658 0.656250 0.062206
0.411741 -0.275116 0.000000 0.831446 -0.555559 0.000000 0.656250 0.500000
0.291145 -0.291145 0.276451 0.590106 -0.590106 0.550920 0.625000 0.688212
0.323503 -0.323503 0.190423 0.654347 -0.654347 0.378979 0.625000 0.625546
0.194537 -0.194537 -0.413738 0.397076 -0.397076 -0.827387 0.625000 0.186789
0.133999 -0.133999 -0.459721 0.275369 -0.275369 -0.921018 0.625000 0.124456
0.343429 -0.343428 0.097077 0.693777 -0.693777 0.193030 0.625000 0.562795
0.068312 -0.068312 -0.488037 0.134709 -0.134709 -0.981658 0.625000 0.062206
0.350157 -0.350157 0.000000 0.707083 -0.707083 0.000000 0.625000 0.500000
0.068312 -0.068312 0.488037 0.134709 -0.134709 0.981658 0.625000 0.937794
0.343429 -0.343428 -0.097077 0.693777 -0.693777 -0.193030 0.625000 0.437205
0.133999 -0.133999 0.459721 0.275369 -0.275369 0.921018 0.625000 0.875544
0.323503 -0.323503 -0.190423 0.654347 -0.654347 -0.378979 0.625000 0.374455
0.194537 -0.194537 0.413738 0.397076 -0.397076 0.827387 0.625000 0.813211
0.291145 -0.291145 -0.276451 0.590106 -0.590106 -0.550920 0.625000 0.311788
0.247598 -0.247598 0.351855 0.503311 -0.503311 0.702353 0.625000 0.750770
0.247598 -0.247598 -0.351855 0.503311 -0.503311 -0.702353 0.625000 0.249230
0.269830 -0.403829 -0.097077 0.545091 -0.815821 -0.193030 0.593750 0.437205
0.254174 -0.380399 -0.190423 0.514115 -0.769433 -0.378979 0.593750 0.374455
0.105283 -0.157566 0.459721 0.216346 -0.323801 0.921018 0.593750 0.875544
0.152847 -0.228751 0.413738 0.311991 -0.466933 0.827387 0.593750 0.813211
0.228751 -0.342350 -0.276451 0.463637 -0.693869 -0.550920 0.593750 0.311788
0.194537 -0.291145 0.351855 0.395428 -0.591815 0.702353 0.593750 0.750770
0.194537 -0.291145 -0.351855 0.395428 -0.591815 -0.702353 0.593750 0.249230
0.228751 -0.342350 0.276451 0.463637 -0.693869 0.550920 0.593750 0.688212
0.152847 -0.228751 -0.413738 0.311991 -0.466933 -0.827387 0.593750 0.186789
0.254174 -0.380399 0.190423 0.514115 -0.769433 0.378979 0.593750 0.625546
0.105283 -0.157566 -0.459721 0.216346 -0.323801 -0.921018 0.593750 0.124456
0.269830 -0.403829 0.097077 0.545091 -0.815821 0.193030 0.593750 0.562795
0.053673 -0.080327 -0.488037 0.105838 -0.158422 -0.981658 0.593750 0.062206
0.275116 -0.411741 0.000000 0.555559 -0.831446 0.000000 0.593750 0.500000
0.053673 -0.080327 0.488037 0.105838 -0.158422 0.981658 0.593750 0.937794
0.105283 -0.254174 -0.413738 0.214911 -0.518815 -0.827387 0.562500 0.186789
0.072520 -0.175078 -0.459721 0.149022 -0.359783 -0.921018 0.562500 0.124456
0.175078 -0.422676 0.190423 0.354106 -0.854946 0.378979 0.562500 0.625546
0.185862 -0.448711 0.097077 0.375469 -0.906491 0.193030 0.562500 0.562795
0.036970 -0.089254 -0.488037 0.072909 -0.176031 -0.981658 0.562500 0.062206
0.189503 -0.457502 0.000000 0.382672 -0.923856 0.000000 0.562500 0.500000
0.036970 -0.089254 0.488037 0.072909 -0.176031 0.981658 0.562500 0.937794
0.185862 -0.448711 -0.097077 0.375469 -0.906491 -0.193030 0.562500 0.437205
0.072520 -0.175078 0.459721 0.149022 -0.359783 0.921018 0.562500 0.875544
0.175078 -0.422676 -0.190423 0.354106 -0.854946 -0.378979 0.562500 0.374455
0.105283 -0.254174 0.413738 0.214911 -0.518815 0.827387 0.562500 0.813211
0.157566 -0.380399 -0.276451 0.319346 -0.770989 -0.550920 0.562500 0.311788
0.133999 -0.323503 0.351855 0.272378 -0.657613 0.702353 0.562500 0.750770
0.133999 -0.323503 -0.351855 0.272378 -0.657613 -0.702353 0.562500 0.249230
0.157566 -0.380399 0.276451 0.319346 -0.770989 0.550920 0.562500 0.688212
0.089254 -0.448711 -0.190423 0.180517 -0.907590 -0.378979 0.531250 0.374455
0.080327 -0.403829 -0.276451 0.162786 -0.818476 -0.550920 0.531250 0.311788
0.053673 -0.269830 0.413738 0.109531 -0.550798 0.827387 0.531250 0.813211
0.068312 -0.343428 0.351855 0.138859 -0.698111 0.702353 0.531250 0.750770
0.068312 -0.343428 -0.351855 0.138859 -0.698111 -0.702353 0.531250 0.249230
0.080327 -0.403829 0.276451 0.162786 -0.818476 0.550920 0.531250 0.688212
0.053673 -0.269830 -0.413738 0.109531 -0.550798 -0.827387 0.531250 0.186789
0.089254 -0.448711 0.190423 0.180517 -0.907590 0.378979 0.531250 0.625546
0.036970 -0.185862 -0.459721 0.075961 -0.381939 -0.921018 0.531250 0.124456
0.094752 -0.476349 0.097077 0.191412 -0.962310 0.193030 0.531250 0.562795
0.018847 -0.094752 -0.488037 0.037172 -0.186865 -0.981658 0.531250 0.062206
0.096608 -0.485681 0.000000 0.195074 -0.980773 0.000000 0.531250 0.500000
0.018847 -0.094752 0.488037 0.037172 -0.186865 0.981658 0.531250 0.937794
0.094752 -0.476349 -0.097077 0.191412 -0.962310 -0.193030 0.531250 0.437205
0.036970 -0.185862 0.459721 0.075961 -0.381939 0.921018 0.531250 0.875544
0.000000 -0.189503 -0.459721 0.000000 -0.389447 -0.921018 0.500000 0.124456
0.000000 -0.096608 -0.488037 0.000000 -0.190527 -0.981658 0.500000 0.062206
0.000000 -0.485681 0.097077 0.000000 -0.981170 0.193030 0.500000 0.562795
0.000000 -0.495196 0.000000 0.000000 -1.000000 0.000000 0.500000 0.500000
0.000000 -0.096608 0.488037 0.000000 -0.190527 0.981658 0.500000 0.937794
0.000000 -0.485681 -0.097077 0.000000 -0.981170 -0.193030 0.500000 0.437205
0.000000 -0.189503 0.459721 0.000000 -0.389447 0.921018 0.500000 0.875544
0.000000 -0.457502 -0.190423 0.000000 -0.925382 -0.378979 0.500000 0.374455
0.000000 -0.275116 0.413738 0.000000 -0.561571 0.827387 0.500000 0.813211
0.000000 -0.411741 -0.276451 0.000000 -0.834529 -0.550920 0.500000 0.311788
0.000000 -0.350157 0.351855 0.000000 -0.711783 0.702353 0.500000 0.750770
0.000000 -0.350157 -0.351855 0.000000 -0.711783 -0.702353 0.500000 0.249230
0.000000 -0.411741 0.276451 0.000000 -0.834529 0.550920 0.500000 0.688212
0.000000 -0.275116 -0.413738 0.000000 -0.561571 -0.827387 0.500000 0.186789
0.000000 -0.457502 0.190423 0.000000 -0.925382 0.378979 0.500000 0.625546
-0.053672 -0.269830 0.413738 -0.109561 -0.550798 0.827387 0.468750 0.813211
-0.068312 -0.343428 0.351855 -0.138859 -0.698111 0.702353 0.468750 0.750770
-0.080327 -0.403829 -0.276451 -0.162786 -0.818476 -0.550920 0.468750 0.311788
-0.068312 -0.343428 -0.351855 -0.138859 -0.698111 -0.702353 0.468750 0.249230
-0.080327 -0.403829 0.276451 -0.162786 -0.818476 0.550920 0.468750 0.688212
-0.053672 -0.269830 -0.413738 -0.109561 -0.550798 -0.827387 0.468750 0.186789
-0.089254 -0.448711 0.190423 -0.180517 -0.907590 0.378979 0.468750 0.625546
-0.036970 -0.185862 -0.459721 -0.075961 -0.381939 -0.921018 0.468750 0.124456
-0.094752 -0.476349 0.097077 -0.191412 -0.962310 0.193030 0.468750 0.562795
-0.018847 -0.094752 -0.488037 -0.037172 -0.186865 -0.981658 0.468750 0.062206
-0.096608 -0.485681 0.000000 -0.195074 -0.980773 0.000000 0.468750 0.500000
-0.018847 -0.094752 0.488037 -0.037172 -0.186865 0.981658 0.468750 0.937794
-0.094752 -0.476349 -0.097077 -0.191412 -0.962310 -0.193030 0.468750 0.437205
-0.036970 -0.185862 0.459721 -0.075961 -0.381939 0.921018 0.468750 0.875544
-0.089254 -0.448711 -0.190423 -0.180517 -0.907590 -0.378979 0.468750 0.374455
-0.185862 -0.448711 0.097077 -0.375469 -0.906491 0.193030 0.437500 0.562795
-0.189503 -0.457502 0.000000 -0.382672 -0.923856 0.000000 0.437500 0.500000
-0.036970 -0.089254 0.488037 -0.072909 -0.176031 0.981658 0.437500 0.937794
-0.036970 -0.089254 -0.488037 -0.072909 -0.176031 -0.981658 0.437500 0.062206
-0.185862 -0.448711 -0.097077 -0.375469 -0.906491 -0.193030 0.437500 0.437205
-0.072520 -0.175078 0.459721 -0.149022 -0.359783 0.921018 0.437500 0.875544
-0.175078 -0.422676 -0.190423 -0.354106 -0.854946 -0.378979 0.437500 0.374455
-0.105282 -0.254174 0.413738 -0.214911 -0.518815 0.827387 0.437500 0.813211
-0.157566 -0.380399 -0.276451 -0.319346 -0.770989 -0.550920 0.437500 0.311788
-0.133999 -0.323502 0.351855 -0.272378 -0.657613 0.702353 0.437500 0.750770
-0.133999 -0.323502 -0.351855 -0.272378 -0.657613 -0.702353 0.437500 0.249230
-0.157566 -0.380399 0.276451 -0.319346 -0.770989 0.550920 0.437500 0.688212
-0.105282 -0.254174 -0.413738 -0.214911 -0.518815 -0.827387 0.437500 0.186789
-0.175078 -0.422676 0.190423 -0.354106 -0.854946 0.378979 0.437500 0.625546
-0.072520 -0.175078 -0.459721 -0.149022 -0.359783 -0.921018 0.437500 0.124456
-0.228751 -0.342350 -0.276451 -0.463637 -0.693869 -0.550920 0.406250 0.311788
-0.194536 -0.291145 -0.351855 -0.395428 -0.591815 -0.702353 0.406250 0.249230
-0.194536 -0.291145 0.351855 -0.395428 -0.591815 0.702353 0.406250 0.750770
-0.228751 -0.342350 0.276451 -0.463637 -0.693869 0.550920 0.406250 0.688212
-0.152846 -0.228751 -0.413738 -0.311991 -0.466933 -0.827387 0.406250 0.186789
-0.254174 -0.380399 0.190423 -0.514115 -0.769433 0.378979 0.406250 0.625546
-0.105282 -0.157566 -0.459721 -0.216346 -0.323801 -0.921018 0.406250 0.124456
-0.269830 -0.403829 0.097077 -0.545091 -0.815821 0.193030 0.406250 0.562795
-0.053672 -0.080327 -0.488037 -0.105838 -0.158422 -0.981658 0.406250 0.062206
-0.275116 -0.411740 0.000000 -0.555559 -0.831446 0.000000 0.406250 0.500000
-0.053672 -0.080327 0.488037 -0.105838 -0.158422 0.981658 0.406250 0.937794
-0.269830 -0.403829 -0.097077 -0.545091 -0.815821 -0.193030 0.406250 0.437205
-0.105282 -0.157566 0.459721 -0.216346 -0.323801 0.921018 0.406250 0.875544
-0.254174 -0.380399 -0.190423 -0.514115 -0.769433 -0.378979 0.406250 0.374455
-0.152846 -0.228751 0.413738 -0.311991 -0.466933 0.827387 0.406250 0.813211
-0.068312 -0.068312 0.488037 -0.134709 -0.134709 0.981658 0.375000 0.937794
-0.068312 -0.068312 -0.488037 -0.134709 -0.134709 -0.981658 0.375000 0.062206
-0.350156 -0.350156 0.000000 -0.707083 -0.707083 0.000000 0.375000 0.500000
-0.343428 -0.343428 -0.097077 -0.693777 -0.693777 -0.193030 0.375000 0.437205
-0.133999 -0.133999 0.459721 -0.275369 -0.275369 0.921018 0.375000 0.875544
-0.323502 -0.323502 -0.190423 -0.654347 -0.654347 -0.378979 0.375000 0.374455
-0.194536 -0.194537 0.413738 -0.397076 -0.397076 0.827387 0.375000 0.813211
-0.291144 -0.291144 -0.276451 -0.590106 -0.590106 -0.550920 0.375000 0.311788
-0.247598 -0.247598 0.351855 -0.503311 -0.503311 0.702353 0.375000 0.750770
-0.247598 -0.247598 -0.351855 -0.503311 -0.503311 -0.702353 0.375000 0.249230
-0.291144 -0.291144 0.276451 -0.590106 -0.590106 0.550920 0.375000 0.688212
-0.194536 -0.194537 -0.413738 -0.397076 -0.397076 -0.827387 0.375000 0.186789
-0.323502 -0.323502 0.190423 -0.654347 -0.654347 0.378979 0.375000 0.625546
-0.133999 -0.133999 -0.459721 -0.275369 -0.275369 -0.921018 0.375000 0.124456
-0.343428 -0.343428 0.097077 -0.693777 -0.693777 0.193030 0.375000 0.562795
-0.291144 -0.194537 0.351855 -0.591815 -0.395428 0.702353 0.343750 0.750770
-0.342350 -0.228751 0.276451 -0.693869 -0.463637 0.550920 0.343750 0.688212
-0.291144 -0.194537 -0.351855 -0.591815 -0.395428 -0.702353 0.343750 0.249230
-0.228751 -0.152846 -0.413738 -0.466933 -0.311991 -0.827387 0.343750 0.186789
-0.380399 -0.254174 0.190423 -0.769433 -0.514115 0.378979 0.343750 0.625546
-0.157566 -0.105282 -0.459721 -0.323801 -0.216346 -0.921018 0.343750 0.124456
-0.403829 -0.269830 0.097077 -0.815821 -0.545091 0.193030 0.343750 0.562795
-0.080326 -0.053673 -0.488037 -0.158422 -0.105838 -0.981658 0.343750 0.062206
-0.411740 -0.275116 0.000000 -0.831446 -0.555559 0.000000 0.343750 0.500000
-0.080327 -0.053673 0.488037 -0.158422 -0.105838 0.981658 0.343750 0.937794
-0.403829 -0.269830 -0.097077 -0.815821 -0.545091 -0.193030 0.343750 0.437205
-0.157566 -0.105282 0.459721 -0.323801 -0.216346 0.921018 0.343750 0.875544
-0.380399 -0.254174 -0.190423 -0.769433 -0.514115 -0.378979 0.343750 0.374455
-0.228751 -0.152846 0.413738 -0.466933 -0.311991 0.827387 0.343750 0.813211
-0.342350 -0.228751 -0.276451 -0.693869 -0.463637 -0.550920 0.343750 0.311788
-0.457501 -0.189503 0.000000 -0.923856 -0.382672 0.000000 0.312500 0.500000
-0.448711 -0.185862 -0.097077 -0.906491 -0.375469 -0.193030 0.312500 0.437205
-0.089254 -0.036970 0.488037 -0.176031 -0.072909 0.981658 0.312500 0.937794
-0.175078 -0.072520 0.459721 -0.359783 -0.149022 0.921018 0.312500 0.875544
-0.422676 -0.175078 -0.190423 -0.854946 -0.354106 -0.378979 0.312500 0.374455
-0.254174 -0.105282 0.413738 -0.518815 -0.214911 0.827387 0.312500 0.813211
-0.380399 -0.157566 -0.276451 -0.770989 -0.319346 -0.550920 0.312500 0.311788
-0.323502 -0.133999 0.351855 -0.657613 -0.272378 0.702353 0.312500 0.750770
-0.323502 -0.133999 -0.351855 -0.657613 -0.272378 -0.702353 0.312500 0.249230
-0.380399 -0.157566 0.276451 -0.770989 -0.319346 0.550920 0.312500 0.688212
-0.254174 -0.105282 -0.413738 -0.518815 -0.214911 -0.827387 0.312500 0.186789
-0.422676 -0.175078 0.190423 -0.854946 -0.354106 0.378979 0.312500 0.625546
-0.175078 -0.072520 -0.459721 -0.359783 -0.149022 -0.921018 0.312500 0.124456
-0.448711 -0.185862 0.097077 -0.906491 -0.375469 0.193030 0.312500 0.562795
-0.089254 -0.036970 -0.488037 -0.176031 -0.072909 -0.981658 0.312500 0.062206
-0.343428 -0.068312 -0.351855 -0.698111 -0.138859 -0.702353 0.281250 0.249230
-0.269830 -0.053672 -0.413738 -0.550798 -0.109561 -0.827387 0.281250 0.186789
-0.403829 -0.080326 0.276451 -0.818476 -0.162786 0.550920 0.281250 0.688212
-0.448711 -0.089254 0.190423 -0.907590 -0.180517 0.378979 0.281250 0.625546
-0.185862 -0.036970 -0.459721 -0.381939 -0.075961 -0.921018 0.281250 0.124456
-0.476349 -0.094752 0.097077 -0.962310 -0.191412 0.193030 0.281250 0.562795
-0.094752 -0.018847 -0.488037 -0.186865 -0.037172 -0.981658 0.281250 0.062206
-0.485681 -0.096608 0.000000 -0.980773 -0.195074 0.000000 0.281250 0.500000
-0.094752 -0.018847 0.488037 -0.186865 -0.037172 0.981658 1.281250 0.937794
-0.476349 -0.094752 -0.097077 -0.962310 -0.191412 -0.193030 0.281250 0.437205
-0.094752 -0.018847 0.488037 -0.186865 -0.037172 0.981658 0.281250 0.937794
-0.185862 -0.036970 0.459721 -0.381939 -0.075961 0.921018 0.281250 0.875544
-0.448711 -0.089254 -0.190423 -0.907590 -0.180517 -0.378979 0.281250 0.374455
-0.269830 -0.053672 0.413738 -0.550798 -0.109561 0.827387 0.281250 0.813211
-0.403829 -0.080326 -0.276451 -0.818476 -0.162786 -0.550920 0.281250 0.311788
-0.343428 -0.068312 0.351855 -0.698111 -0.138859 0.702353 0.281250 0.750770
4 0 1 2 3
4 4 5 6 7
4 8 0 3 9
4 10 4 7 11
4 12 8 9 13
4 14 10 11 15
4 16 12 13 17
4 18 14 15 19
4 20 16 17 21
4 22 18 19 23
4 24 20 21 25
4 26 22 23 27
4 28 24 25 29
3 30 31 32
3 33 26 27
4 5 28 29 6
4 29 25 34 35
3 32 31 36
3 33 27 37
4 6 29 35 38
4 3 2 39 40
4 7 6 38 41
4 9 3 40 42
4 11 7 41 43
4 13 9 42 44
4 15 11 43 45
4 17 13 44 46
4 19 15 45 47
4 21 17 46 48
4 23 19 47 49
4 25 21 48 34
4 27 23 49 50
4 45 43 51 52
4 46 44 53 54
4 47 45 52 55
4 48 46 54 56
4 49 47 55 57
4 34 48 56 58
4 50 49 57 59
4 35 34 58 60
3 36 31 61
3 33 37 62
4 38 35 60 63
4 40 39 64 65
4 41 38 63 66
4 42 40 65 67
4 43 41 66 51
4 44 42 67 53
3 33 62 68
4 63 60 69 70
4 65 64 71 72
4 66 63 70 73
4 67 65 72 74
4 51 66 73 75
4 53 67 74 76
4 52 51 75 77
4 54 53 76 78
4 55 52 77 79
4 56 54 78 80
4 57 55 79 81
4 58 56 80 82
4 59 57 81 83
4 60 58 82 69
3 61 31 84
4 79 77 85 86
4 80 78 87 88
4 81 79 86 89
4 82 80 88 90
4 83 81 89 91
4 69 82 90 92
3 84 31 93
3 33 68 94
4 70 69 92 95
4 72 71 96 97
4 73 70 95 98
4 74 72 97 99
4 75 73 98 100
4 76 74 99 101
4 77 75 100 85
4 78 76 101 87
4 97 96 102 103
4 98 95 104 105
4 99 97 103 106
4 100 98 105 107
4 101 99 106 108
4 85 100 107 109
4 87 101 108 110
4 86 85 109 111
4 88 87 110 112
4 89 86 111 113
4 90 88 112 114
4 91 89 113 115
4 92 90 114 116
3 93 31 117
3 33 94 118
4 95 92 116 104
4 112 110 119 120
4 113 111 121 122
4 114 112 120 123
4 115 113 122 124
4 116 114 123 125
3 117 31 126
3 33 118 127
4 104 116 125 128
4 103 102 129 130
4 105 104 128 131
4 106 103 130 132
4 107 105 131 133
4 108 106 132 134
4 109 107 133 135
4 110 108 134 119
4 111 109 135 121
4 136 137 138 139
4 140 141 142 143
4 144 136 139 145
4 146 140 143 147
4 148 144 145 149
4 150 146 147 151
4 152 148 149 153
4 154 150 151 155
4 156 152 153 157
4 158 154 155 159
4 127 156 157 160
4 161 158 159 162
3 126 31 163
3 33 127 160
4 137 161 162 138
4 141 126 163 142
4 157 153 164 165
4 159 155 166 167
4 160 157 165 168
4 162 159 167 169
3 163 31 170
3 33 160 168
4 138 162 169 171
4 142 163 170 172
4 139 138 171 173
4 143 142 172 174
4 145 139 173 175
4 147 143 174 176
4 149 145 175 177
4 151 147 176 178
4 153 149 177 164
4 155 151 178 166
4 174 172 179 180
4 175 173 181 182
4 176 174 180 183
4 177 175 182 184
4 178 176 183 185
4 164 177 184 186
4 166 178 185 187
4 165 164 186 188
4 167 166 187 189
4 168 165 188 190
4 169 167 189 191
3 170 31 192
3 33 168 190
4 171 169 191 193
4 172 170 192 179
4 173 171 193 181
4 189 187 194 195
4 190 188 196 197
4 191 189 195 198
3 192 31 199
3 33 190 197
4 193 191 198 200
4 179 192 199 201
4 181 193 200 202
4 180 179 201 203
4 182 181 202 204
4 183 180 203 205
4 184 182 204 206
4 185 183 205 207
4 186 184 206 208
4 187 185 207 194
4 188 186 208 196
4 204 202 209 210
4 205 203 211 212
4 206 204 210 213
4 207 205 212 214
4 208 206 213 215
4 194 207 214 216
4 196 208 215 217
4 195 194 216 218
4 197 196 217 219
4 198 195 218 220
3 199 31 221
3 33 197 219
4 200 198 220 222
4 201 199 221 223
4 202 200 222 209
4 203 201 223 211
4 219 217 224 225
4 220 218 226 227
3 221 31 228
3 33 219 225
4 222 220 227 229
4 223 221 228 230
4 209 222 229 231
4 211 223 230 232
4 210 209 231 233
4 212 211 232 234
4 213 210 233 235
4 214 212 234 236
4 215 213 235 237
4 216 214 236 238
4 217 215 237 224
4 218 216 238 226
4 235 233 239 240
4 236 234 241 242
4 237 235 240 243
4 238 236 242 244
4 224 237 243 245
4 226 238 244 246
4 225 224 245 247
4 227 226 246 248
3 228 31 249
3 33 225 247
4 229 227 248 250
4 230 228 249 251
4 231 229 250 252
4 232 230 251 253
4 233 231 252 239
4 234 232 253 241
3 249 31 254
3 33 247 255
4 250 248 256 257
4 251 249 254 258
4 252 250 257 259
4 253 251 258 260
4 239 252 259 261
4 241 253 260 262
4 240 239 261 263
4 242 241 262 264
4 243 240 263 265
4 244 242 264 266
4 245 243 265 267
4 246 244 266 268
4 247 245 267 255
4 248 246 268 256
4 264 262 269 270
4 265 263 271 272
4 266 264 270 273
4 267 265 272 274
4 268 266 273 275
4 255 267 274 276
4 256 268 275 277
3 254 31 278
3 33 255 276
4 257 256 277 279
4 258 254 278 280
4 259 257 279 281
4 260 258 280 282
4 261 259 281 283
4 262 260 282 269
4 263 261 283 271
4 279 277 284 285
4 280 278 286 287
4 281 279 285 288
4 282 280 287 289
4 283 281 288 290
4 269 282 289 291
4 271 283 290 292
4 270 269 291 293
4 272 271 292 294
4 273 270 293 295
4 274 272 294 296
4 275 273 295 297
4 276 274 296 298
4 277 275 297 284
3 278 31 286
3 33 276 298
4 294 292 299 300
4 295 293 301 302
4 296 294 300 303
4 297 295 302 304
4 298 296 303 305
4 284 297 304 306
3 286 31 307
3 33 298 305
4 285 284 306 308
4 287 286 307 309
4 288 285 308 310
4 289 287 309 311
4 290 288 310 312
4 291 289 311 313
4 292 290 312 299
4 293 291 313 301
4 309 307 314 315
4 310 308 316 317
4 311 309 315 318
4 312 310 317 319
4 313 311 318 320
4 299 312 319 321
4 301 313 320 322
4 300 299 321 323
4 302 301 322 324
4 303 300 323 325
4 304 302 324 326
4 305 303 325 327
4 306 304 326 328
3 307 31 314
3 33 305 327
4 308 306 328 316
4 324 322 329 330
4 325 323 331 332
4 326 324 330 333
4 327 325 332 334
4 328 326 333 335
3 314 31 336
3 33 327 334
4 316 328 335 337
4 315 314 336 338
4 317 316 337 339
4 318 315 338 340
4 319 317 339 341
4 320 318 340 342
4 321 319 341 343
4 322 320 342 329
4 323 321 343 331
4 339 337 344 345
4 340 338 346 347
4 341 339 345 348
4 342 340 347 349
4 343 341 348 350
4 329 342 349 351
4 331 343 350 352
4 330 329 351 353
4 332 331 352 354
4 333 330 353 355
4 334 332 354 356
4 335 333 355 357
3 336 31 358
3 33 334 356
4 337 335 357 344
4 338 336 358 346
4 354 352 359 360
4 355 353 361 362
4 356 354 360 363
4 357 355 362 364
3 358 31 365
3 33 356 363
4 344 357 364 366
4 346 358 365 367
4 345 344 366 368
4 347 346 367 369
4 348 345 368 370
4 349 347 369 371
4 350 348 370 372
4 351 349 371 373
4 352 350 372 359
4 353 351 373 361
4 370 368 374 375
4 371 369 376 377
4 372 370 375 378
4 373 371 377 379
4 359 372 378 380
4 361 373 379 381
4 360 359 380 382
4 362 361 381 383
4 363 360 382 384
4 364 362 383 385
3 365 31 386
3 33 363 384
4 366 364 385 387
4 367 365 386 388
4 368 366 387 374
4 369 367 388 376
4 384 382 389 390
4 385 383 391 392
3 386 31 393
3 33 384 390
4 387 385 392 394
4 388 386 393 395
4 374 387 394 396
4 376 388 395 397
4 375 374 396 398
4 377 376 397 399
4 378 375 398 400
4 379 377 399 401
4 380 378 400 402
4 381 379 401 403
4 382 380 402 389
4 383 381 403 391
4 399 397 404 405
4 400 398 406 407
4 401 399 405 408
4 402 400 407 409
4 403 401 408 410
4 389 402 409 411
4 391 403 410 412
4 390 389 411 413
4 392 391 412 414
3 393 31 415
3 33 390 413
4 394 392 414 416
4 395 393 415 417
4 396 394 416 418
4 397 395 417 404
4 398 396 418 406
4 414 412 419 420
3 415 31 421
3 33 413 422
4 416 414 420 423
4 417 415 421 424
4 418 416 423 425
4 404 417 424 426
4 406 418 425 427
4 405 404 426 428
4 407 406 427 429
4 408 405 428 430
4 409 407 429 431
4 410 408 430 432
4 411 409 431 433
4 412 410 432 419
4 413 411 433 422
4 429 427 434 435
4 430 428 436 437
4 431 429 435 438
4 432 430 437 439
4 433 431 438 440
4 419 432 439 441
4 422 433 440 442
4 420 419 441 443
3 421 31 444
3 33 422 442
4 423 420 443 445
4 424 421 444 446
4 425 423 445 447
4 426 424 446 448
4 427 425 447 434
4 428 426 448 436
3 444 31 449
3 33 442 450
4 445 443 451 452
4 446 444 449 453
4 447 445 452 454
4 448 446 453 455
4 434 447 454 456
4 436 448 455 457
4 435 434 456 458
4 437 436 457 459
4 438 435 458 460
4 439 437 459 461
4 440 438 460 462
4 441 439 461 463
4 442 440 462 450
4 443 441 463 451
4 459 457 464 465
4 460 458 466 467
4 461 459 465 468
4 462 460 467 469
4 463 461 468 470
4 450 462 469 471
4 451 463 470 472
3 449 31 473
3 33 450 471
4 452 451 472 474
4 453 449 473 475
4 454 452 474 476
4 455 453 475 477
4 456 454 476 478
4 457 455 477 464
4 458 456 478 466
4 474 472 479 480
4 475 473 481 482
4 476 474 480 483
4 477 475 482 484
4 478 476 483 485
4 464 477 484 486
4 466 478 485 487
4 465 464 486 488
4 467 466 487 489
4 468 465 488 490
4 469 467 489 491
4 470 468 490 492
4 471 469 491 493
4 472 470 492 479
3 473 31 481
3 33 471 493
4 489 487 494 495
4 490 488 496 497
4 491 489 495 498
4 492 490 497 499
4 493 491 498 500
4 479 492 499 501
3 481 31 502
3 33 493 500
4 480 479 501 503
4 482 481 504 505
4 483 480 503 506
4 484 482 505 507
4 485 483 506 508
4 486 484 507 509
4 487 485 508 494
4 488 486 509 496
4 506 503 5 4
4 507 505 0 8
4 508 506 4 10
4 509 507 8 12
4 494 508 10 14
4 496 509 12 16
4 495 494 14 18
4 497 496 16 20
4 498 495 18 22
4 499 497 20 24
4 500 498 22 26
4 501 499 24 28
3 502 31 30
3 33 500 26
4 503 501 28 5
4 1 0 505 504
